<?xml version="1.0" standalone="no"?>
<!DOCTYPE svg PUBLIC "-//W3C//DTD SVG 20010904//EN"
 "http://www.w3.org/TR/2001/REC-SVG-20010904/DTD/svg10.dtd">
<svg version="1.0" xmlns="http://www.w3.org/2000/svg"
 width="2100.000000pt" height="600.000000pt" viewBox="0 0 2100.000000 600.000000"
 preserveAspectRatio="xMidYMid meet">
<metadata>
Created by potrace 1.15, written by Peter Selinger 2001-2017
</metadata>
<g transform="translate(0.000000,600.000000) scale(0.100000,-0.100000)"
fill="#000000" stroke="none">
<path d="M11540 4459 c-35 -4 -85 -13 -111 -18 -36 -8 -69 -7 -135 5 -115 21
-338 13 -476 -16 -342 -72 -670 -265 -881 -518 -181 -217 -277 -422 -322 -686
-15 -92 -26 -130 -36 -131 -8 -1 -48 -5 -89 -9 -187 -16 -381 -79 -495 -160
-108 -78 -173 -181 -196 -310 -52 -305 157 -487 577 -503 418 -16 808 164
1050 486 143 190 225 411 324 868 60 279 115 423 220 578 27 39 72 93 102 122
65 62 165 133 189 133 10 0 45 -25 79 -56 45 -42 71 -78 103 -142 42 -85 42
-86 42 -196 0 -180 -32 -244 -216 -432 -109 -111 -109 -111 -109 -160 0 -61
10 -73 121 -152 121 -86 194 -168 215 -239 23 -80 15 -263 -16 -352 -63 -179
-211 -300 -411 -335 -73 -12 -294 -5 -323 11 -14 8 -11 11 22 21 24 7 55 29
80 56 110 119 25 290 -134 270 -136 -17 -196 -169 -119 -300 56 -95 148 -134
314 -134 152 0 269 22 366 70 176 85 374 321 429 509 22 76 21 219 -3 303 -32
118 -131 244 -260 330 -98 66 -96 80 25 199 226 220 282 350 240 550 -20 94
-49 145 -122 215 l-63 61 69 12 c38 6 90 11 115 11 42 0 46 2 43 23 -3 20 -9
22 -73 23 -38 1 -99 -2 -135 -7z m-485 -88 c33 -5 80 -14 103 -21 l44 -11 -84
-58 c-220 -154 -392 -359 -507 -601 -69 -147 -99 -237 -180 -543 -100 -375
-144 -493 -226 -617 -125 -188 -337 -304 -620 -339 -127 -15 -298 -14 -374 4
-300 71 -451 337 -303 533 33 43 132 117 212 157 107 54 278 101 433 119 41 5
47 3 47 -13 0 -43 50 -212 82 -276 32 -65 37 -70 64 -67 16 2 30 5 32 7 2 2
-16 55 -41 117 -24 62 -48 131 -51 153 -4 22 -9 48 -12 57 -15 52 172 0 288
-80 24 -17 72 -56 107 -88 59 -54 64 -57 77 -39 19 26 -3 59 -97 150 -109 104
-195 148 -351 180 -34 7 -34 15 -12 146 73 426 390 834 801 1030 179 85 400
124 568 100z"/>
<path d="M2707 4354 c-196 -43 -358 -159 -425 -301 -24 -53 -27 -69 -27 -173
0 -109 2 -119 33 -184 18 -38 55 -100 83 -138 29 -38 50 -70 48 -72 -2 -2 -35
-14 -74 -26 -104 -34 -248 -103 -319 -154 -288 -206 -383 -546 -235 -846 59
-119 178 -238 299 -297 137 -67 227 -86 410 -86 232 1 445 39 638 113 194 74
337 210 383 362 17 56 21 88 17 172 -3 91 -7 109 -36 168 -80 163 -272 258
-521 258 -281 0 -580 -178 -581 -347 0 -28 4 -33 24 -33 20 0 29 10 50 55 47
104 181 202 326 240 122 32 299 16 401 -36 228 -116 264 -440 73 -657 -293
-333 -940 -282 -1198 95 -76 112 -91 165 -91 323 1 101 5 150 19 195 58 194
196 341 396 422 61 24 172 54 265 69 l50 9 3 53 4 53 -95 92 c-111 109 -139
158 -138 248 0 75 14 119 59 187 55 83 175 163 282 187 54 13 201 7 277 -10
64 -15 174 -67 172 -83 0 -4 -27 -20 -60 -35 -80 -38 -115 -84 -112 -149 2
-95 71 -163 155 -155 97 9 168 87 168 185 0 138 -96 238 -276 288 -86 23 -357
29 -447 8z"/>
<path d="M7122 4328 c-96 -12 -237 -48 -338 -87 -307 -119 -529 -369 -590
-668 -25 -117 -15 -329 20 -445 l26 -88 -64 -63 c-243 -244 -232 -633 22 -796
126 -81 374 -119 584 -91 103 14 249 61 348 110 l75 38 40 -34 c44 -37 151
-96 205 -112 139 -42 356 -12 525 73 231 116 389 325 467 621 31 116 32 124
32 344 1 213 0 231 -26 333 -123 483 -453 788 -933 862 -100 15 -281 16 -393
3z m468 -87 c304 -70 546 -270 686 -565 218 -461 141 -1073 -172 -1365 -173
-162 -360 -161 -614 3 l-70 46 72 73 c93 93 178 205 233 310 104 197 106 370
5 461 -52 47 -109 62 -176 47 -60 -14 -130 -68 -150 -118 -20 -47 -18 -141 4
-183 44 -83 190 -105 266 -41 18 15 19 14 13 -31 -9 -66 -48 -156 -102 -237
-46 -70 -210 -235 -224 -226 -17 10 -126 183 -167 263 -24 46 -56 119 -73 162
-32 84 -101 347 -101 385 0 20 17 32 114 78 201 97 322 196 381 313 26 51 30
71 33 159 3 89 1 105 -20 144 -38 74 -63 86 -181 86 -129 0 -173 -19 -272
-119 -112 -113 -196 -294 -246 -528 -12 -57 -22 -104 -24 -105 -1 -2 -36 -12
-79 -23 -42 -11 -152 -49 -243 -85 -92 -36 -172 -64 -179 -61 -27 10 -49 154
-49 326 0 155 2 170 28 245 78 222 258 408 497 511 86 38 241 79 345 93 110
15 366 5 465 -18z m-187 -302 c44 -20 62 -65 62 -159 0 -115 -29 -177 -128
-275 -60 -58 -94 -82 -190 -130 -65 -32 -120 -56 -122 -53 -3 3 -5 54 -6 114
0 178 44 318 133 419 69 78 181 116 251 84z m-589 -831 c26 -271 139 -545 330
-803 15 -20 11 -22 -122 -75 -153 -61 -228 -79 -319 -80 -167 0 -339 115 -417
280 -29 61 -31 73 -31 175 0 104 2 115 38 201 l38 91 62 -61 c34 -34 91 -79
126 -101 61 -36 65 -37 77 -20 8 10 14 24 14 31 0 6 -36 35 -81 64 -72 48
-159 130 -159 151 0 12 116 92 180 124 56 29 226 94 246 95 7 0 14 -29 18 -72z"/>
<path d="M16840 4297 c-108 -37 -239 -142 -303 -243 -122 -196 -176 -369 -257
-824 -95 -536 -152 -722 -275 -896 -100 -140 -245 -230 -424 -264 -74 -14
-314 -14 -427 -1 -255 30 -449 132 -512 269 -21 47 -24 64 -20 140 3 69 10 98
32 142 67 135 254 268 463 329 287 84 531 63 644 -56 41 -43 57 -83 53 -133
-11 -134 -74 -189 -269 -232 -60 -13 -75 -28 -56 -57 8 -12 20 -13 79 -2 131
23 241 92 281 175 27 55 28 155 2 212 -28 61 -105 130 -197 175 -315 153 -692
80 -941 -184 -246 -260 -209 -575 87 -740 159 -88 311 -117 580 -113 179 3
204 6 311 33 359 94 571 291 716 666 71 185 106 369 178 949 47 378 104 525
227 589 39 20 128 26 128 9 0 -5 -9 -33 -21 -62 -54 -136 46 -245 176 -195 68
26 100 66 110 138 9 58 -18 126 -61 156 -68 48 -197 57 -304 20z"/>
<path d="M13316 4082 c-3 -9 -55 -235 -116 -502 -239 -1044 -236 -1034 -273
-1106 -50 -99 -132 -211 -168 -230 -74 -38 -76 1 -9 304 27 125 65 299 84 387
181 832 247 1132 251 1143 3 9 -19 12 -93 12 l-98 0 -37 -162 c-20 -90 -91
-399 -157 -688 -172 -749 -181 -788 -191 -863 -18 -140 32 -237 123 -237 72 0
135 38 219 129 l76 83 6 -61 c12 -134 107 -197 216 -141 47 23 120 103 161
174 36 64 37 76 6 76 -18 0 -33 -15 -64 -65 -35 -55 -89 -105 -114 -105 -4 0
-10 11 -14 25 -7 28 7 107 55 325 124 563 322 1479 324 1495 2 19 -5 20 -90
22 -79 1 -93 -1 -97 -15z"/>
<path d="M4006 4073 c-6 -20 -30 -125 -146 -633 -45 -195 -116 -501 -157 -680
-67 -286 -76 -337 -77 -427 -1 -97 0 -103 29 -144 39 -55 86 -75 142 -60 74
20 160 106 217 219 l26 52 -29 0 c-25 0 -34 -8 -61 -54 -32 -57 -91 -116 -114
-116 -37 0 -33 35 41 375 30 138 69 320 88 405 56 261 184 850 205 945 11 50
23 100 25 113 5 22 4 22 -89 22 -82 0 -95 -2 -100 -17z"/>
<path d="M17751 4053 c-6 -21 -33 -139 -61 -263 -28 -124 -71 -310 -95 -415
-105 -455 -205 -895 -216 -952 -18 -99 -9 -184 27 -235 88 -125 250 -53 358
160 l26 52 -29 0 c-25 0 -34 -8 -61 -54 -32 -57 -91 -116 -115 -116 -19 0 -28
34 -20 83 4 23 26 132 50 242 24 110 64 292 89 405 25 113 63 291 86 395 52
244 100 461 155 713 5 22 4 22 -89 22 l-95 0 -10 -37z"/>
<path d="M18196 2849 c-49 -6 -91 -18 -142 -44 -83 -40 -133 -91 -173 -175
-24 -50 -26 -66 -26 -175 0 -140 13 -175 90 -243 64 -56 145 -77 265 -69 153
11 242 54 307 150 48 71 67 146 68 262 0 90 -3 106 -28 157 -54 110 -176 156
-361 137z m141 -95 c44 -48 54 -152 29 -296 -28 -153 -98 -258 -172 -258 -97
0 -134 55 -134 199 0 145 46 286 113 349 50 47 125 50 164 6z"/>
<path d="M4285 2809 c-48 -25 -111 -85 -167 -157 -33 -43 -38 -55 -28 -67 20
-24 32 -17 85 48 28 33 56 62 64 65 20 7 12 -44 -49 -308 -27 -120 -50 -220
-50 -224 0 -3 42 -6 94 -6 94 0 94 0 101 27 12 48 110 256 160 340 73 124 158
201 194 178 28 -17 6 -152 -59 -373 -22 -74 -40 -143 -40 -154 0 -17 8 -18
112 -16 l113 3 11 75 c16 104 32 158 59 205 29 49 248 265 269 265 15 0 20
-19 17 -65 -1 -11 -22 -92 -46 -180 -52 -190 -59 -227 -51 -260 13 -51 97 -75
193 -55 61 13 121 61 178 145 32 46 37 58 25 65 -23 15 -26 13 -65 -40 -38
-51 -80 -81 -102 -73 -22 8 -14 58 37 238 63 217 69 261 42 295 -19 23 -27 25
-104 25 -82 0 -84 0 -153 -47 -38 -25 -105 -79 -148 -119 l-79 -72 8 49 c16
95 10 135 -25 166 -27 24 -40 28 -90 28 -113 0 -200 -51 -304 -180 -50 -62
-59 -70 -53 -45 3 17 9 69 13 116 5 79 4 88 -16 108 -28 28 -93 28 -146 0z"/>
<path d="M12109 2808 c-160 -56 -274 -201 -286 -363 -7 -93 15 -172 64 -226
55 -60 99 -79 186 -79 136 0 230 46 318 154 27 33 49 64 49 68 0 4 -9 10 -20
13 -16 5 -36 -8 -86 -54 -77 -70 -152 -111 -205 -111 -55 0 -89 44 -89 114 l0
52 108 21 c127 24 192 53 248 108 47 47 69 115 59 177 -21 120 -188 181 -346
126z m162 -38 c16 -9 19 -22 19 -83 -1 -115 -47 -189 -139 -222 -45 -16 -121
-21 -121 -7 0 4 7 37 14 73 26 122 96 222 168 239 18 4 34 8 36 9 2 1 12 -4
23 -9z"/>
<path d="M13690 2815 c-113 -32 -217 -120 -272 -232 -60 -122 -47 -279 29
-364 55 -60 99 -79 186 -79 136 0 230 46 318 154 27 33 49 64 49 68 0 4 -9 10
-20 13 -16 5 -36 -8 -86 -54 -77 -70 -152 -111 -205 -111 -55 0 -89 44 -89
114 l0 53 100 17 c176 31 284 102 310 204 31 126 -48 218 -198 228 -43 2 -87
-2 -122 -11z m158 -120 c5 -117 -42 -196 -137 -230 -45 -16 -121 -21 -121 -7
0 4 7 37 14 73 33 155 130 262 216 239 23 -6 25 -11 28 -75z"/>
<path d="M16716 2813 c-223 -66 -350 -402 -225 -597 40 -64 89 -85 196 -86
104 0 151 18 202 77 l38 45 12 -45 c6 -27 20 -52 33 -61 34 -24 97 -20 157 10
48 25 171 127 171 143 0 4 -6 16 -14 27 -14 18 -17 16 -75 -40 -111 -109 -115
-70 -31 274 27 113 50 213 50 223 0 17 -24 20 -165 20 -30 0 -33 -4 -40 -44
l-7 -40 -37 40 c-20 22 -50 45 -66 51 -46 18 -145 19 -199 3z m204 -81 c41
-34 45 -180 9 -317 -18 -66 -65 -150 -104 -184 -32 -28 -43 -32 -83 -29 -44 3
-48 5 -69 47 -49 97 -4 337 82 440 50 58 123 77 165 43z"/>
<path d="M19243 2806 c-63 -30 -140 -99 -200 -180 -47 -63 -52 -58 -32 34 22
102 -9 160 -85 160 -61 0 -94 -14 -145 -63 -42 -41 -131 -153 -131 -166 0 -3
8 -11 19 -18 16 -10 24 -3 71 58 73 96 87 92 70 -18 -10 -60 -82 -389 -96
-435 -5 -16 4 -18 89 -18 l94 0 18 63 c46 166 123 312 218 413 50 54 64 64 93
64 31 0 34 -3 34 -30 0 -16 -16 -97 -35 -179 -43 -181 -46 -274 -13 -316 20
-26 25 -27 82 -23 35 3 80 15 104 27 43 22 162 133 162 151 0 5 -10 14 -21 21
-18 9 -24 8 -32 -7 -29 -53 -107 -106 -107 -74 0 6 14 81 32 168 19 98 32 190
32 244 1 82 -1 89 -26 115 -40 39 -123 43 -195 9z"/>
</g>
</svg>
